<svg width="35" height="35" viewBox="0 0 35 35" fill="none" xmlns="http://www.w3.org/2000/svg">
<g id="a" clip-path="url(#clip0_278_31)">
<path id="Vector" d="M29.371 0H5.62901C2.52019 0 0 2.52019 0 5.62901V29.371C0 32.4798 2.52019 35 5.62901 35H29.371C32.4798 35 35 32.4798 35 29.371V5.62901C35 2.52019 32.4798 0 29.371 0Z" fill="#1A090D"/>
<g id="Group">
<path id="Vector_2" d="M22.9291 10.8831C22.2644 10.8831 21.7263 11.422 21.7263 12.0858C21.7263 12.7497 22.2652 13.2895 22.9291 13.2895C23.593 13.2895 24.1327 12.7506 24.1327 12.0858C24.1327 11.4211 23.5938 10.8831 22.9291 10.8831Z" fill="white"/>
<path id="Vector_3" d="M17.5791 12.426C14.7919 12.426 12.5245 14.6934 12.5245 17.4805C12.5245 20.2677 14.7919 22.5351 17.5791 22.5351C20.3662 22.5351 22.6336 20.2677 22.6336 17.4805C22.6336 14.6934 20.3662 12.426 17.5791 12.426ZM17.5791 20.718C15.7935 20.718 14.3415 19.2661 14.3415 17.4805C14.3415 15.695 15.7943 14.243 17.5791 14.243C19.3638 14.243 20.8166 15.695 20.8166 17.4805C20.8166 19.2661 19.3646 20.718 17.5791 20.718Z" fill="white"/>
<path id="Vector_4" d="M21.5922 27.7428H13.3979C9.99811 27.7428 7.23328 24.9771 7.23328 21.5782V13.3838C7.23328 9.98407 9.99894 7.21924 13.3979 7.21924H21.5922C24.992 7.21924 27.7576 9.9849 27.7576 13.3838V21.5782C27.7576 24.9779 24.992 27.7428 21.5922 27.7428ZM13.3979 9.14883C11.0635 9.14883 9.16369 11.0478 9.16369 13.383V21.5773C9.16369 23.9126 11.0627 25.8115 13.3979 25.8115H21.5922C23.9274 25.8115 25.8264 23.9126 25.8264 21.5773V13.383C25.8264 11.0486 23.9266 9.14883 21.5922 9.14883H13.3979Z" fill="white"/>
</g>
</g>
<defs>
<clipPath id="clip0_278_31">
<rect width="35" height="35" fill="white"/>
</clipPath>
</defs>
</svg>
