<svg width="121" height="25" viewBox="0 0 121 25" fill="none" xmlns="http://www.w3.org/2000/svg">
<g id="a" style="mix-blend-mode:luminosity" clip-path="url(#clip0_161_367)">
<g id="Group" style="mix-blend-mode:screen">
<path id="Vector" d="M17.0953 2.48963C15.4108 0.895521 13.3628 0.203911 11.0755 0.197109C7.46719 0.185771 3.86117 0.194841 0.252895 0.194841C0.167092 0.194841 0.0835458 0.206179 0 0.212982V24.891H4.10729V17.4284C4.25632 17.4284 4.37374 17.4284 4.49115 17.4284C6.75141 17.4261 9.01392 17.4488 11.2719 17.4125C13.4215 17.3785 15.3386 16.6642 16.9327 15.1903C18.852 13.4148 19.7258 11.1835 19.6739 8.57806C19.6265 6.20391 18.8317 4.13362 17.093 2.48963H17.0953ZM14.1441 12.5372C13.2477 13.34 12.1729 13.7164 10.9874 13.7277C8.7678 13.7504 6.54593 13.7345 4.32406 13.7345C4.25858 13.7345 4.19084 13.7209 4.10955 13.7118V3.98396H4.41664C6.62722 3.98396 8.83779 3.98169 11.0506 3.98396C13.6044 3.98849 15.6456 6.02024 15.7156 8.5894C15.7585 10.1427 15.3182 11.4874 14.1441 12.5395V12.5372Z" fill="white"/>
<path id="Vector_2" d="M37.2276 3.98645C37.4263 3.98645 37.5482 3.93656 37.6475 3.75289C37.835 3.40595 38.0517 3.07715 38.2549 2.73928C38.7585 1.90708 39.2643 1.07715 39.7881 0.210938H23.8128V24.8867H27.9201V3.98418C28.0646 3.98418 28.1798 3.98418 28.2949 3.98418C31.2732 3.98418 34.2515 3.98418 37.2298 3.98872L37.2276 3.98645Z" fill="white"/>
<path id="Vector_3" d="M43.6719 7.64172H46.1941L41.7323 0L37.2682 7.64172H39.7407C39.7407 7.81406 39.7475 7.98413 39.752 8.15193C39.7656 8.5941 39.7769 9.01134 39.7317 9.4263C39.4698 11.8231 37.4556 13.6372 35.0441 13.6485C33.7977 13.6531 32.5535 13.6553 31.3071 13.6508L30.2684 13.6463C30.2459 13.6463 30.221 13.6463 30.2075 13.6463H29.8552V17.5442H30.203C30.2323 17.5442 30.2639 17.5465 30.3 17.5465H30.3091C31.271 17.5419 32.2352 17.542 33.1971 17.542C34.0145 17.542 34.8296 17.5419 35.6447 17.5397C36.0286 17.5397 36.417 17.517 36.8008 17.4739C39.9846 17.127 42.7935 14.5737 43.4777 11.4036C43.6674 10.5261 43.6674 9.63265 43.6674 8.76644C43.6674 8.5873 43.6674 8.40816 43.6674 8.22902C43.6674 8.0771 43.6674 7.92744 43.6674 7.76644V7.63719L43.6719 7.64172Z" fill="white"/>
<path id="Vector_4" d="M40.601 19.3311H36.0286L39.4246 24.8866H44.347L40.601 19.3311Z" fill="white"/>
</g>
<g id="Group_2">
<path id="Vector_5" d="M58.2924 2.55566H61.5281C63.0207 2.55566 64.17 3.22006 64.17 4.93435C64.17 6.64863 63.0184 7.31303 61.5281 7.31303H59.3176V10.7325H58.2924V2.55566ZM59.3176 6.3992H61.641C62.6549 6.3992 63.1448 5.92981 63.1448 4.93435C63.1448 3.93888 62.6549 3.4695 61.641 3.4695H59.3176V6.3992Z" fill="white"/>
<path id="Vector_6" d="M66.1864 2.55566V9.82097H70.4585V10.7371H65.1613V2.55566H66.1864Z" fill="white"/>
<path id="Vector_7" d="M72.5991 8.68718L71.881 10.7348H70.822L73.8297 2.55566H74.97L77.9663 10.7348H76.9073L76.1893 8.68718H72.6013H72.5991ZM75.8574 7.77108L74.41 3.50351H74.3874L72.94 7.77108H75.8574Z" fill="white"/>
<path id="Vector_8" d="M78.8401 2.55566H80.0933L84.16 9.29262H84.1826V2.55566H85.2077V10.7348H83.9545L79.8879 4.02052H79.8653V10.7348H78.8401V2.55566Z" fill="white"/>
<path id="Vector_9" d="M89.0125 2.55566H91.9637C94.2081 2.55566 95.5855 4.02052 95.5855 6.6509C95.5855 9.28129 94.2081 10.7348 91.9637 10.7348H89.0125V2.55566ZM90.0376 9.8187H91.9637C94.0365 9.8187 94.5603 8.25181 94.5603 6.6509C94.5603 5.04999 94.0365 3.4695 91.9637 3.4695H90.0376V9.8187Z" fill="white"/>
<path id="Vector_10" d="M102.009 6.04546V6.96156H97.8299V9.82097H102.694V10.7371H96.8048V2.55566H102.558V3.47176H97.8299V6.04546H102.009Z" fill="white"/>
<path id="Vector_11" d="M58.2924 13.9956H61.5959C63.2013 13.9956 64.2851 14.8641 64.2851 16.3176C64.2851 17.4967 63.7274 18.1475 62.8265 18.3766V18.3992C64.6374 18.753 63.9781 21.9684 64.398 22.1067V22.1747H63.2939C62.9416 21.8323 63.7161 18.8686 61.6546 18.8686H59.3198V22.1747H58.2947V13.9956H58.2924ZM59.3176 17.9548H61.3565C62.1988 17.9548 63.26 17.8527 63.26 16.4332C63.26 15.0137 62.201 14.9117 61.3565 14.9117H59.3176V17.9548Z" fill="white"/>
<path id="Vector_12" d="M70.7069 17.4854V18.4015H66.5273V21.2609H71.3911V22.177H65.5022V13.9956H71.2556V14.9117H66.5273V17.4854H70.7069Z" fill="white"/>
<path id="Vector_13" d="M74.7848 14.9093H72.0729V13.9932H78.5195V14.9093H75.8077V22.1746H74.7825V14.9093H74.7848Z" fill="white"/>
<path id="Vector_14" d="M80.5834 13.9956V22.1747H79.5582V13.9956H80.5834Z" fill="white"/>
<path id="Vector_15" d="M82.1323 13.9956H85.4358C87.0412 13.9956 88.125 14.8641 88.125 16.3176C88.125 17.4967 87.5673 18.1475 86.6664 18.3766V18.3992C88.4773 18.753 87.818 21.9684 88.2379 22.1067V22.1747H87.1338C86.7815 21.8323 87.556 18.8686 85.4945 18.8686H83.1597V22.1747H82.1346V13.9956H82.1323ZM83.1575 17.9548H85.1964C86.0387 17.9548 87.0999 17.8527 87.0999 16.4332C87.0999 15.0137 86.0409 14.9117 85.1964 14.9117H83.1575V17.9548Z" fill="white"/>
<path id="Vector_16" d="M89.035 18.0794C89.035 15.6191 90.6292 13.8345 93.0227 13.8345C95.4161 13.8345 97.0103 15.6191 97.0103 18.0794C97.0103 20.5397 95.4161 22.3356 93.0227 22.3356C90.6292 22.3356 89.035 20.5397 89.035 18.0794ZM95.9829 18.0794C95.9829 16.3175 95.0707 14.7506 93.0204 14.7506C90.9701 14.7506 90.0579 16.3175 90.0579 18.0794C90.0579 19.8413 90.9701 21.4195 93.0204 21.4195C95.0707 21.4195 95.9829 19.8413 95.9829 18.0794Z" fill="white"/>
<path id="Vector_17" d="M100.244 21.6262C100.244 21.2475 100.517 20.998 100.869 20.998C101.221 20.998 101.495 21.2497 101.495 21.6262C101.495 22.0026 101.221 22.2543 100.869 22.2543C100.517 22.2543 100.244 22.0139 100.244 21.6262Z" fill="white"/>
<path id="Vector_18" d="M105.04 13.9956H106.442L108.993 20.7915H109.016L111.568 13.9956H112.967V22.1747H111.942V15.4491H111.92L109.459 22.1747H108.546L106.085 15.4491H106.063V22.1747H105.037V13.9956H105.04Z" fill="white"/>
<path id="Vector_19" d="M114.083 13.9956H115.221L117.226 17.2677H117.237L119.254 13.9956H120.392L117.806 17.9775L120.586 22.1747H119.333L117.237 18.7303H117.226L115.142 22.1747H113.889L116.668 18.0001L114.083 13.9956Z" fill="white"/>
</g>
</g>
<defs>
<clipPath id="clip0_161_367">
<rect width="120.588" height="25" fill="white"/>
</clipPath>
</defs>
</svg>
