<svg width="185" height="38" viewBox="0 0 185 38" fill="none" xmlns="http://www.w3.org/2000/svg">
<g id="a" clip-path="url(#clip0_161_14)">
<g id="Group">
<path id="Vector" d="M26.2267 3.78449C23.6424 1.36145 20.5005 0.310207 16.9914 0.299866C11.4558 0.282633 5.9236 0.29642 0.387979 0.29642C0.256343 0.29642 0.128172 0.313653 0 0.323993V37.8346H6.30119V26.4914C6.52982 26.4914 6.70995 26.4914 6.89008 26.4914C10.3576 26.488 13.8287 26.5225 17.2928 26.4673C20.5906 26.4156 23.5316 25.3299 25.9772 23.0895C28.9217 20.3908 30.2623 16.9992 30.1827 13.0389C30.1099 9.43021 28.8906 6.28336 26.2232 3.78449H26.2267ZM21.6991 19.0569C20.3238 20.277 18.6749 20.8492 16.8563 20.8664C13.4511 20.9009 10.0424 20.8767 6.63374 20.8767C6.53328 20.8767 6.42936 20.8561 6.30465 20.8423V6.05588H6.77577C10.1671 6.05588 13.5585 6.05243 16.9533 6.05588C20.8712 6.06277 24.0027 9.15102 24.1101 13.0561C24.1759 15.4171 23.5004 17.461 21.6991 19.0603V19.0569Z" fill="black"/>
<path id="Vector_2" d="M57.1125 6.05933C57.4174 6.05933 57.6044 5.9835 57.7569 5.70432C58.0444 5.17697 58.3769 4.6772 58.6887 4.16364C59.4612 2.8987 60.2372 1.6372 61.0408 0.320557H36.5323V37.8277H42.8335V6.05589C43.0552 6.05589 43.2319 6.05589 43.4086 6.05589C47.9777 6.05589 52.5469 6.05589 57.116 6.06278L57.1125 6.05933Z" fill="black" stroke="#1D1D1B" stroke-miterlimit="10"/>
<path id="Vector_3" d="M66.999 11.6154H70.8684L64.0234 0L57.1749 11.6154H60.9681C60.9681 11.8774 60.9784 12.1359 60.9854 12.3909C61.0062 13.063 61.0235 13.6972 60.9542 14.328C60.5524 17.9712 57.4624 20.7285 53.7627 20.7458C51.8506 20.7527 49.9418 20.7561 48.0297 20.7492L46.4362 20.7423C46.4015 20.7423 46.3634 20.7423 46.3426 20.7423H45.8022V26.6672H46.3357C46.3807 26.6672 46.4292 26.6707 46.4847 26.6707H46.4985C47.9742 26.6638 49.4534 26.6638 50.9291 26.6638C52.1831 26.6638 53.4336 26.6638 54.6842 26.6603C55.2731 26.6603 55.8689 26.6258 56.4578 26.5604C61.3422 26.033 65.6515 22.152 66.7011 17.3335C66.9921 15.9996 66.9921 14.6416 66.9921 13.325C66.9921 13.0527 66.9921 12.7804 66.9921 12.5081C66.9921 12.2772 66.9921 12.0497 66.9921 11.805V11.6085L66.999 11.6154Z" fill="#0063C6"/>
<path id="Vector_4" d="M62.2879 29.3832H55.2731L60.4831 37.8277H68.0348L62.2879 29.3832Z" fill="black"/>
</g>
<g id="Group_2">
<path id="Vector_5" d="M89.4291 3.88443H94.3931C96.6829 3.88443 98.4461 4.89432 98.4461 7.50003C98.4461 10.1057 96.6794 11.1156 94.3931 11.1156H91.0018V16.3133H89.4291V3.88443ZM91.0018 9.72661H94.5663C96.1217 9.72661 96.8734 9.01314 96.8734 7.50003C96.8734 5.98692 96.1217 5.27345 94.5663 5.27345H91.0018V9.72661Z" fill="black"/>
<path id="Vector_6" d="M101.54 3.88443V14.9277H108.094V16.3202H99.9669V3.88443H101.54Z" fill="black"/>
<path id="Vector_7" d="M111.378 13.2043L110.276 16.3167H108.651L113.265 3.88443H115.015L119.612 16.3167H117.987L116.885 13.2043H111.381H111.378ZM116.376 11.8119L114.156 5.32516H114.121L111.901 11.8119H116.376Z" fill="black"/>
<path id="Vector_8" d="M120.952 3.88443H122.875L129.114 14.1246H129.148V3.88443H130.721V16.3167H128.799L122.56 6.11101H122.525V16.3167H120.952V3.88443Z" fill="black"/>
<path id="Vector_9" d="M136.558 3.88443H141.086C144.529 3.88443 146.642 6.11101 146.642 10.1092C146.642 14.1074 144.529 16.3167 141.086 16.3167H136.558V3.88443ZM138.131 14.9242H141.086C144.266 14.9242 145.069 12.5426 145.069 10.1092C145.069 7.67581 144.266 5.27345 141.086 5.27345H138.131V14.9242Z" fill="black"/>
<path id="Vector_10" d="M156.497 9.18892V10.5814H150.085V14.9277H157.547V16.3202H148.513V3.88443H157.339V5.2769H150.085V9.18892H156.497Z" fill="black"/>
<path id="Vector_11" d="M89.4291 21.2731H94.4971C96.96 21.2731 98.6228 22.5932 98.6228 24.8025C98.6228 26.5948 97.7671 27.584 96.385 27.9321V27.9666C99.1632 28.5043 98.1517 33.3917 98.796 33.602V33.7054H97.102C96.5616 33.1849 97.7498 28.6801 94.5871 28.6801H91.0052V33.7054H89.4325V21.2731H89.4291ZM91.0018 27.2911H94.1299C95.422 27.2911 97.0501 27.136 97.0501 24.9783C97.0501 22.8207 95.4254 22.6656 94.1299 22.6656H91.0018V27.2911Z" fill="black"/>
<path id="Vector_12" d="M108.475 26.5776V27.9701H102.063V32.3164H109.524V33.7088H100.49V21.2731H109.316V22.6656H102.063V26.5776H108.475Z" fill="black"/>
<path id="Vector_13" d="M114.731 22.6621H110.57V21.2697H120.46V22.6621H116.3V33.7054H114.727V22.6621H114.731Z" fill="black"/>
<path id="Vector_14" d="M123.627 21.2731V33.7054H122.054V21.2731H123.627Z" fill="black"/>
<path id="Vector_15" d="M126.003 21.2731H131.071C133.534 21.2731 135.197 22.5932 135.197 24.8025C135.197 26.5948 134.341 27.584 132.959 27.9321V27.9666C135.737 28.5043 134.726 33.3917 135.37 33.602V33.7054H133.676C133.136 33.1849 134.324 28.6801 131.161 28.6801H127.579V33.7054H126.006V21.2731H126.003ZM127.576 27.2911H130.704C131.996 27.2911 133.624 27.136 133.624 24.9783C133.624 22.8207 131.999 22.6656 130.704 22.6656H127.576V27.2911Z" fill="black"/>
<path id="Vector_16" d="M136.593 27.4806C136.593 23.7409 139.038 21.0284 142.71 21.0284C146.382 21.0284 148.828 23.7409 148.828 27.4806C148.828 31.2203 146.382 33.9501 142.71 33.9501C139.038 33.9501 136.593 31.2203 136.593 27.4806ZM147.252 27.4806C147.252 24.8025 145.852 22.4209 142.707 22.4209C139.561 22.4209 138.162 24.8025 138.162 27.4806C138.162 30.1587 139.561 32.5576 142.707 32.5576C145.852 32.5576 147.252 30.1587 147.252 27.4806Z" fill="black"/>
<path id="Vector_17" d="M153.789 32.8713C153.789 32.2957 154.208 31.9165 154.748 31.9165C155.288 31.9165 155.708 32.2991 155.708 32.8713C155.708 33.4434 155.288 33.826 154.748 33.826C154.208 33.826 153.789 33.4607 153.789 32.8713Z" fill="black"/>
<path id="Vector_18" d="M161.146 21.2731H163.297L167.212 31.6029H167.246L171.161 21.2731H173.309V33.7054H171.736V23.4824H171.701L167.925 33.7054H166.526L162.75 23.4824H162.715V33.7054H161.143V21.2731H161.146Z" fill="black"/>
<path id="Vector_19" d="M175.02 21.2731H176.766L179.842 26.2467H179.859L182.953 21.2731H184.699L180.732 27.3255L184.997 33.7054H183.074L179.859 28.4698H179.842L176.645 33.7054H174.722L178.986 27.36L175.02 21.2731Z" fill="black"/>
</g>
</g>
<defs>
<clipPath id="clip0_161_14">
<rect width="185" height="38" fill="white"/>
</clipPath>
</defs>
</svg>
