<svg width="35" height="35" viewBox="0 0 35 35" fill="none" xmlns="http://www.w3.org/2000/svg">
<g id="a" clip-path="url(#clip0_278_19)">
<path id="Vector" d="M29.371 0H5.62901C2.52019 0 0 2.52019 0 5.62901V29.371C0 32.4798 2.52019 35 5.62901 35H29.371C32.4798 35 35 32.4798 35 29.371V5.62901C35 2.52019 32.4798 0 29.371 0Z" fill="#1A090D"/>
<path id="Vector_2" fill-rule="evenodd" clip-rule="evenodd" d="M25.7155 11.8407C24.6575 11.6155 23.7213 11.0626 23.0169 10.2944C22.2851 9.49471 21.8041 8.46162 21.6998 7.32009V6.85156H18.0319V21.4116C18.0261 23.1086 16.6478 24.4836 14.9483 24.4836C13.9467 24.4836 13.0568 24.0068 12.4939 23.2676C11.4873 22.7601 10.7978 21.7179 10.7978 20.5143C10.7978 18.8124 12.1785 17.4324 13.8813 17.4324C12.1777 17.4324 10.7978 18.8124 10.7978 20.5143C10.7978 21.7179 11.4873 22.7601 12.4939 23.2676C12.085 22.7312 11.864 22.0755 11.8648 21.4017C11.8648 19.6998 13.2456 18.3198 14.9483 18.3198C15.2654 18.3198 15.5816 18.3687 15.8837 18.4639V14.7371C15.5303 14.6891 15.1735 14.6684 14.8167 14.6759C11.1595 14.7512 8.21753 17.7387 8.21753 21.4125C8.21753 23.246 8.95013 24.9091 10.1388 26.1235C11.3632 27.3743 13.0701 28.1507 14.9583 28.1507C18.6817 28.1507 21.6998 25.1342 21.6998 21.4125V13.9739C23.1319 14.9971 24.8868 15.5997 26.7825 15.5997V11.9541C26.4241 11.9541 26.0664 11.9168 25.7155 11.8423V11.8407ZM14.5882 17.5127C14.6652 17.5309 14.7406 17.5516 14.8151 17.5748C14.7406 17.5508 14.6644 17.5301 14.5882 17.5127ZM13.8805 17.4308C13.9583 17.4308 14.0344 17.4341 14.1106 17.4399C14.0344 17.4341 13.9575 17.4308 13.8805 17.4308ZM14.1205 17.4399C14.1975 17.4457 14.2729 17.4548 14.3482 17.4664C14.2729 17.4548 14.1967 17.4457 14.1205 17.4399Z" fill="white"/>
</g>
<defs>
<clipPath id="clip0_278_19">
<rect width="35" height="35" fill="white"/>
</clipPath>
</defs>
</svg>
