<svg width="35" height="35" viewBox="0 0 35 35" fill="none" xmlns="http://www.w3.org/2000/svg">
<g id="a" clip-path="url(#clip0_278_22)">
<path id="Vector" d="M29.371 0H5.62901C2.52019 0 0 2.52019 0 5.62901V29.371C0 32.4798 2.52019 35 5.62901 35H29.371C32.4798 35 35 32.4798 35 29.371V5.62901C35 2.52019 32.4798 0 29.371 0Z" fill="#1A090D"/>
<path id="Vector_2" d="M26.8669 14.9499C26.8669 12.6287 24.9853 10.7463 22.6634 10.7463H11.9153C9.59414 10.7463 7.71173 12.6287 7.71173 14.9499V19.9522C7.71173 22.2734 9.59331 24.1558 11.9153 24.1558H22.6642C24.9853 24.1558 26.8677 22.2742 26.8677 19.9522V14.9499H26.8669ZM20.5459 17.8256L15.7256 20.2105C15.5369 20.3132 14.8945 20.1758 14.8945 19.9614V15.0666C14.8945 14.8489 15.5418 14.7123 15.7306 14.8199L20.3447 17.3298C20.5384 17.4399 20.7412 17.7197 20.5459 17.8256Z" fill="white"/>
</g>
<defs>
<clipPath id="clip0_278_22">
<rect width="35" height="35" fill="white"/>
</clipPath>
</defs>
</svg>
